<?xml version="1.0" encoding="UTF-8"?>
<svg version="1.1" viewBox="0 0 750 471" xmlns="http://www.w3.org/2000/svg">
<g fill="none" fill-rule="evenodd"><g>
<rect width="750" height="471" rx="40" fill="#2557D6"/>
<path d="m0.002688 221.19h36.024l8.1227-19.51h18.185l8.1014 19.51h70.88v-14.916l6.3268 14.98h36.796l6.3268-15.202v15.139h176.15l-0.0825-32.026h3.4082c2.3865 0.0822 3.0836 0.30203 3.0836 4.2258v27.8h91.106v-7.4554c7.3485 3.9211 18.778 7.4554 33.819 7.4554h38.328l8.2026-19.51h18.185l8.0216 19.51h73.86v-18.532l11.185 18.532h59.187v-122.51h-58.575v14.468l-8.2026-14.468h-60.105v14.468l-7.5321-14.468h-81.187c-13.59 0-25.536 1.889-35.186 7.1533v-7.1533h-56.026v7.1533c-6.1406-5.4259-14.508-7.1533-23.812-7.1533h-204.69l-13.734 31.642-14.104-31.642h-64.471v14.468l-7.0824-14.468h-54.983l-25.534 58.247v64.261h0.0026 9.1e-5zm227.4-17.671h-21.615l-0.0798-68.794-30.573 68.794h-18.512l-30.652-68.855v68.855h-42.883l-8.1014-19.592h-43.899l-8.1839 19.592h-22.9l37.756-87.837h31.326l35.859 83.164v-83.164h34.412l27.593 59.587 25.347-59.587h35.104v87.837h3e-3zm-159.62-37.821-14.431-35.017-14.348 35.017h28.779zm245.64 37.821h-70.433v-87.837h70.433v18.291h-49.348v15.833h48.164v18.005h-48.164v17.542h49.348v18.167zm99.256-64.181c0 14.005-9.3865 21.24-14.857 23.413 4.6134 1.7486 8.5537 4.8378 10.429 7.3971 2.9772 4.3688 3.4907 8.2714 3.4907 16.116v17.255h-21.266l-0.0798-11.077c0-5.2855 0.50817-12.887-3.3284-17.112-3.0809-3.0892-7.7769-3.7595-15.367-3.7595h-22.634v31.949h-21.082v-87.837h48.494c10.775 0 18.714 0.28348 25.531 4.2072 6.67 3.9237 10.669 9.6517 10.669 19.449h-1e-5zm-26.653 13.043c-2.8974 1.7512-6.3242 1.8095-10.429 1.8095h-25.613v-19.51h25.962c3.6742 0 7.5081 0.16427 9.9984 1.5843 2.7351 1.2796 4.4272 4.0032 4.4272 7.7653 0 3.839-1.6096 6.9281-4.3447 8.3508zm60.466 51.138h-21.513v-87.837h21.513v87.837zm249.74 0h-29.878l-39.964-65.927v65.927h-42.939l-8.2052-19.592h-43.798l-7.9604 19.592h-24.672c-10.249 0-23.224-2.2573-30.573-9.7153-7.4097-7.458-11.265-17.56-11.265-33.533 0-13.027 2.304-24.936 11.366-34.347 6.8164-7.0102 17.491-10.242 32.02-10.242h20.412v18.821h-19.984c-7.6944 0-12.039 1.1392-16.224 5.2034-3.5944 3.6985-6.0608 10.69-6.0608 19.897 0 9.4106 1.8784 16.196 5.7974 20.628 3.2459 3.476 9.1444 4.5304 14.694 4.5304h9.469l29.716-69.077h31.592l35.697 83.082v-83.082h32.102l37.062 61.174v-61.174h21.596v87.835zm-128.16-37.821-14.591-35.017-14.511 35.017h29.101z" fill="#fff"/>
<path d="m749.96 343.77c-5.1216 7.458-15.101 11.239-28.612 11.239h-40.717v-18.84h40.552c4.0228 0 6.8377-0.52723 8.5325-2.1751 1.4686-1.3591 2.493-3.3329 2.493-5.7306 0-2.5593-1.0243-4.5914-2.5754-5.8101-1.5298-1.3406-3.7567-1.95-7.4283-1.95-19.797-0.67028-44.495 0.60936-44.495-27.193 0-12.744 8.1254-26.157 30.251-26.157h41.997l0.00265-17.481h-39.023c-11.776 0-20.329 2.8083-26.388 7.1745v-7.1745h-57.716c-9.2295 0-20.063 2.2785-25.188 7.1745v-7.1745h-103.07v7.1745c-8.2026-5.8922-22.043-7.1745-28.431-7.1745h-67.983v7.1745c-6.4891-6.2578-20.92-7.1745-29.716-7.1745h-76.084l-17.411 18.763-16.307-18.763h-113.65v122.59h111.52l17.94-19.06 16.9 19.06 68.739 0.0609v-28.838h6.7578c9.1204 0.14041 19.877-0.22519 29.367-4.3105v33.085h56.697v-31.951h2.7351c3.4907 0 3.8339 0.14307 3.8339 3.6164v28.332h172.23c10.935 0 22.365-2.7871 28.694-7.8448v7.8448h54.632c11.369 0 22.471-1.587 30.919-5.6511v-22.838 4e-5zm-341.5-47.154c0 24.406-18.286 29.445-36.716 29.445h-26.308v29.469h-40.981l-25.962-29.085-26.981 29.085h-83.515v-87.859h84.8l25.941 28.799 26.819-28.799h67.371c16.732 0 35.532 4.6126 35.532 28.944zm-167.63 40.434h-51.839v-17.481h46.289v-17.926h-46.289v-15.973h52.86l23.062 25.604-24.084 25.776zm83.527 10.06-32.371-35.788 32.371-34.651v70.439zm47.873-39.066h-27.247v-22.374h27.492c7.6119 0 12.896 3.0892 12.896 10.772 0 7.5984-5.0391 11.602-13.141 11.602zm142.74-40.373h70.37v18.169h-49.372v15.973h48.167v17.926h-48.167v17.481l49.372 0.0794v18.23h-70.37v-87.859zm-27.053 47.029c4.6932 1.7248 8.5298 4.8166 10.328 7.3759 2.9772 4.2893 3.4082 8.2925 3.4933 16.037v17.417h-21.168v-10.992c0-5.2855 0.51083-13.112-3.4082-17.197-3.0809-3.1475-7.7768-3.8999-15.469-3.8999h-22.532v32.089h-21.186v-87.859h48.678c10.674 0 18.448 0.46894 25.369 4.1463 6.6541 4.0032 10.839 9.4874 10.839 19.51-3e-3 14.023-9.3945 21.179-14.944 23.373zm-11.918-11.107c-2.8202 1.6665-6.3082 1.8095-10.411 1.8095h-25.613v-19.733h25.962c3.7541 0 7.5108 0.0794 10.062 1.587 2.7324 1.4227 4.366 4.1436 4.366 7.9031 0 3.7595-1.6336 6.7877-4.366 8.433zm190.34 5.5964c4.1053 4.2311 6.3056 9.5722 6.3056 18.615 0 18.901-11.858 27.723-33.121 27.723h-41.066v-18.84h40.901c3.9988 0 6.835-0.52723 8.6123-2.1752 1.45-1.3591 2.4903-3.3329 2.4903-5.7306 0-2.5593-1.1254-4.5914-2.5728-5.8101-1.6123-1.3406-3.8366-1.9499-7.5081-1.9499-19.718-0.67029-44.41 0.60935-44.41-27.193 0-12.744 8.0402-26.157 30.144-26.157h42.269v18.699h-38.677c-3.8339 0-6.3268 0.14307-8.4473 1.587-2.3094 1.4227-3.1661 3.5343-3.1661 6.3214 0 3.3144 1.9608 5.569 4.6134 6.544 2.2242 0.77097 4.6134 0.99616 8.2052 0.99616l11.35 0.30468c11.446 0.27818 19.302 2.2493 24.078 7.0659zm83.665-23.519h-38.427c-3.8366 0-6.3854 0.14307-8.5325 1.587-2.2242 1.4227-3.0809 3.5343-3.0809 6.3214 0 3.3144 1.8784 5.569 4.6108 6.544 2.2242 0.77097 4.6134 0.99617 8.1254 0.99617l11.427 0.30468c11.531 0.28349 19.228 2.2573 23.921 7.0712 0.85404 0.67029 1.3675 1.4227 1.9555 2.1751v-25z" fill="#fff"/>
</g>
</g>
</svg>
