<?xml version="1.0" encoding="UTF-8"?>
<svg version="1.1" viewBox="0 0 750 471" xmlns="http://www.w3.org/2000/svg">
<g fill="none" fill-rule="evenodd"><g>
<rect width="750" height="471" rx="40" fill="#000C9D"/>
<rect x="48.71" y="153.58" width="110.32" height="99.679" rx="20.323" fill="#9D9400"/>
<g transform="translate(51 279)" fill="#fff">
<polygon points="27.102 31.37 27.102 27.575 21.985 27.575 21.985 16.305 17.787 16.305 17.385 27.575 5.9425 27.575 16.522 2.5051 12.555 0.78012 0.88247 27.92 0.88247 31.37 17.327 31.37 17.327 41.03 21.985 41.03 21.985 31.37"/>
<path d="m46.688 0.78012c-4.025 0-7.8775 1.38-11.212 4.6l2.5875 2.9325c2.645-2.4725 5.0025-3.68 8.395-3.68 4.1975 0 7.5325 2.3575 7.5325 6.7275 0 4.7725-3.7375 6.9575-7.5325 6.9575h-2.3575l-0.575 3.795h3.335c4.6575 0 8.2225 1.84 8.2225 7.5325 0 4.945-3.2775 8.1075-8.855 8.1075-3.22 0-6.555-1.3225-8.7975-3.9675l-3.22 2.645c2.99 3.68 7.705 5.2325 12.132 5.2325 8.165 0 13.742-5.175 13.742-12.018 0-6.1525-4.37-9.3725-9.0275-9.7175 4.1975-0.805 7.7625-4.4275 7.7625-9.2 0-5.405-4.715-9.9475-12.132-9.9475z"/>
<path d="m81.165 0.78012c-5.3475 0-8.9125 1.8975-12.075 5.6925l3.335 2.53c2.53-2.9325 4.6575-4.1975 8.5675-4.1975 4.4275 0 7.0725 2.76 7.0725 7.1875 0 6.4975-3.22 10.81-18.17 25.128v3.91h23.518l0.575-4.0825h-18.63c13.052-11.902 17.71-17.825 17.71-25.07 0-6.325-4.4275-11.098-11.902-11.098z"/>
<polygon points="129.9 37.12 121.62 37.12 121.62 1.4701 117.43 1.4701 105.7 8.7151 107.77 12.108 116.85 6.6451 116.85 37.12 107.08 37.12 107.08 41.03 129.9 41.03"/>
<polygon points="199.49 31.37 199.49 27.575 194.37 27.575 194.37 16.305 190.18 16.305 189.77 27.575 178.33 27.575 188.91 2.5051 184.94 0.78012 173.27 27.92 173.27 31.37 189.72 31.37 189.72 41.03 194.37 41.03 194.37 31.37"/>
<path d="m219.08 0.78012c-4.025 0-7.8775 1.38-11.212 4.6l2.5875 2.9325c2.645-2.4725 5.0025-3.68 8.395-3.68 4.1975 0 7.5325 2.3575 7.5325 6.7275 0 4.7725-3.7375 6.9575-7.5325 6.9575h-2.3575l-0.575 3.795h3.335c4.6575 0 8.2225 1.84 8.2225 7.5325 0 4.945-3.2775 8.1075-8.855 8.1075-3.22 0-6.555-1.3225-8.7975-3.9675l-3.22 2.645c2.99 3.68 7.705 5.2325 12.132 5.2325 8.165 0 13.742-5.175 13.742-12.018 0-6.1525-4.37-9.3725-9.0275-9.7175 4.1975-0.805 7.7625-4.4275 7.7625-9.2 0-5.405-4.715-9.9475-12.132-9.9475z"/>
<path d="m253.55 0.78012c-5.3475 0-8.9125 1.8975-12.075 5.6925l3.335 2.53c2.53-2.9325 4.6575-4.1975 8.5675-4.1975 4.4275 0 7.0725 2.76 7.0725 7.1875 0 6.4975-3.22 10.81-18.17 25.128v3.91h23.518l0.575-4.0825h-18.63c13.052-11.902 17.71-17.825 17.71-25.07 0-6.325-4.4275-11.098-11.902-11.098z"/>
<polygon points="302.29 37.12 294.01 37.12 294.01 1.4701 289.81 1.4701 278.08 8.7151 280.15 12.108 289.24 6.6451 289.24 37.12 279.46 37.12 279.46 41.03 302.29 41.03"/>
<polygon points="371.88 31.37 371.88 27.575 366.76 27.575 366.76 16.305 362.56 16.305 362.16 27.575 350.72 27.575 361.3 2.5051 357.33 0.78012 345.66 27.92 345.66 31.37 362.1 31.37 362.1 41.03 366.76 41.03 366.76 31.37"/>
<path d="m391.46 0.78012c-4.025 0-7.8775 1.38-11.212 4.6l2.5875 2.9325c2.645-2.4725 5.0025-3.68 8.395-3.68 4.1975 0 7.5325 2.3575 7.5325 6.7275 0 4.7725-3.7375 6.9575-7.5325 6.9575h-2.3575l-0.575 3.795h3.335c4.6575 0 8.2225 1.84 8.2225 7.5325 0 4.945-3.2775 8.1075-8.855 8.1075-3.22 0-6.555-1.3225-8.7975-3.9675l-3.22 2.645c2.99 3.68 7.705 5.2325 12.132 5.2325 8.165 0 13.742-5.175 13.742-12.018 0-6.1525-4.37-9.3725-9.0275-9.7175 4.1975-0.805 7.7625-4.4275 7.7625-9.2 0-5.405-4.715-9.9475-12.132-9.9475z"/>
<path d="m425.94 0.78012c-5.3475 0-8.9125 1.8975-12.075 5.6925l3.335 2.53c2.53-2.9325 4.6575-4.1975 8.5675-4.1975 4.4275 0 7.0725 2.76 7.0725 7.1875 0 6.4975-3.22 10.81-18.17 25.128v3.91h23.518l0.575-4.0825h-18.63c13.052-11.902 17.71-17.825 17.71-25.07 0-6.325-4.4275-11.098-11.902-11.098z"/>
<polygon points="474.68 37.12 466.4 37.12 466.4 1.4701 462.2 1.4701 450.47 8.7151 452.54 12.108 461.63 6.6451 461.63 37.12 451.85 37.12 451.85 41.03 474.68 41.03"/>
<polygon points="544.27 31.37 544.27 27.575 539.15 27.575 539.15 16.305 534.95 16.305 534.55 27.575 523.11 27.575 533.69 2.5051 529.72 0.78012 518.05 27.92 518.05 31.37 534.49 31.37 534.49 41.03 539.15 41.03 539.15 31.37"/>
<path d="m563.85 0.78012c-4.025 0-7.8775 1.38-11.212 4.6l2.5875 2.9325c2.645-2.4725 5.0025-3.68 8.395-3.68 4.1975 0 7.5325 2.3575 7.5325 6.7275 0 4.7725-3.7375 6.9575-7.5325 6.9575h-2.3575l-0.575 3.795h3.335c4.6575 0 8.2225 1.84 8.2225 7.5325 0 4.945-3.2775 8.1075-8.855 8.1075-3.22 0-6.555-1.3225-8.7975-3.9675l-3.22 2.645c2.99 3.68 7.705 5.2325 12.132 5.2325 8.165 0 13.742-5.175 13.742-12.018 0-6.1525-4.37-9.3725-9.0275-9.7175 4.1975-0.805 7.7625-4.4275 7.7625-9.2 0-5.405-4.715-9.9475-12.132-9.9475z"/>
<path d="m598.33 0.78012c-5.3475 0-8.9125 1.8975-12.075 5.6925l3.335 2.53c2.53-2.9325 4.6575-4.1975 8.5675-4.1975 4.4275 0 7.0725 2.76 7.0725 7.1875 0 6.4975-3.22 10.81-18.17 25.128v3.91h23.518l0.575-4.0825h-18.63c13.052-11.902 17.71-17.825 17.71-25.07 0-6.325-4.4275-11.098-11.902-11.098z"/>
<polygon points="647.07 37.12 638.79 37.12 638.79 1.4701 634.59 1.4701 622.86 8.7151 624.93 12.108 634.01 6.6451 634.01 37.12 624.24 37.12 624.24 41.03 647.07 41.03"/>
</g>
<g transform="translate(55 389)" fill="#fff" fill-opacity=".78431">
<polygon points="0.60668 26.421 7.052 26.421 7.052 4.1748 0.040272 5.581 0.040272 1.9873 7.0129 0.58102 10.958 0.58102 10.958 26.421 17.404 26.421 17.404 29.741 0.60668 29.741"/>
<polygon points="26.075 26.421 32.521 26.421 32.521 4.1748 25.509 5.581 25.509 1.9873 32.482 0.58102 36.427 0.58102 36.427 26.421 42.872 26.421 42.872 29.741 26.075 29.741"/>
<path d="m66.993 26.421h13.77v3.3203h-18.516v-3.3203c1.4974-1.5495 3.5352-3.6263 6.1133-6.2305 2.5911-2.6172 4.2188-4.3034 4.8828-5.0586 1.263-1.4193 2.1419-2.6172 2.6367-3.5938 0.50781-0.98959 0.76171-1.9596 0.76171-2.9102 0-1.5495-0.54687-2.8125-1.6406-3.7891-1.0807-0.97657-2.4935-1.4648-4.2383-1.4648-1.237 0-2.5456 0.21484-3.9258 0.64453-1.3672 0.42969-2.832 1.0807-4.3945 1.9531v-3.9844c1.5885-0.63802 3.0729-1.1198 4.4531-1.4453s2.6432-0.48828 3.7891-0.48828c3.0208 0 5.4297 0.75521 7.2266 2.2656 1.7969 1.5104 2.6953 3.5286 2.6953 6.0547 0 1.1979-0.22787 2.3372-0.6836 3.418-0.44271 1.0677-1.2565 2.3307-2.4414 3.7891-0.32552 0.37761-1.3607 1.4714-3.1055 3.2812-1.7448 1.7969-4.2057 4.3164-7.3828 7.5586z"/>
<path d="m101.02 14.019c1.888 0.40365 3.3594 1.2435 4.4141 2.5195 1.0677 1.276 1.6016 2.8516 1.6016 4.7266 0 2.8776-0.98958 5.1042-2.9688 6.6797-1.9792 1.5755-4.7917 2.3633-8.4375 2.3633-1.224 0-2.487-0.1237-3.7891-0.3711-1.2891-0.23437-2.6237-0.59245-4.0039-1.0742v-3.8086c1.0938 0.63802 2.2917 1.1198 3.5938 1.4453 1.3021 0.32552 2.6628 0.48828 4.082 0.48828 2.474 0 4.3555-0.48828 5.6445-1.4648 1.3021-0.97656 1.9531-2.3958 1.9531-4.2578 0-1.7188-0.60547-3.0599-1.8164-4.0234-1.1979-0.97656-2.8711-1.4648-5.0195-1.4648h-3.3984v-3.2422h3.5547c1.9401 0 3.4245-0.38411 4.4531-1.1523 1.0286-0.78125 1.543-1.901 1.543-3.3594 0-1.4974-0.53385-2.6432-1.6016-3.4375-1.0547-0.80729-2.5716-1.2109-4.5508-1.2109-1.0807 0-2.2396 0.11719-3.4766 0.35157-1.237 0.23437-2.5977 0.59896-4.082 1.0938v-3.5156c1.4974-0.41667 2.8971-0.72917 4.1992-0.9375 1.3151-0.20833 2.5521-0.3125 3.7109-0.3125 2.9948 0 5.3646 0.68359 7.1094 2.0508 1.7448 1.3542 2.6172 3.1901 2.6172 5.5078 0 1.6146-0.46224 2.9818-1.3867 4.1016-0.92448 1.1068-2.2396 1.875-3.9453 2.3047z"/>
<path d="m127.31 0.58102h15.488v3.3203h-11.875v7.1484c0.57291-0.19531 1.1458-0.33853 1.7188-0.42968 0.57291-0.10417 1.1458-0.15625 1.7188-0.15625 3.2552 0 5.8333 0.89193 7.7344 2.6758 1.901 1.7839 2.8516 4.1992 2.8516 7.2461 0 3.138-0.97656 5.5794-2.9297 7.3242-1.9531 1.7318-4.707 2.5977-8.2617 2.5977-1.224 0-2.474-0.10417-3.75-0.3125-1.263-0.20833-2.5716-0.52083-3.9258-0.9375v-3.9648c1.1719 0.63802 2.3828 1.1133 3.6328 1.4258s2.5716 0.46875 3.9648 0.46875c2.2526 0 4.0365-0.59245 5.3516-1.7773 1.3151-1.1849 1.9726-2.793 1.9726-4.8242 0-2.0312-0.65755-3.6393-1.9726-4.8242-1.3151-1.1849-3.099-1.7773-5.3516-1.7773-1.0547 0-2.1094 0.11719-3.1641 0.35156-1.0417 0.23437-2.1094 0.59896-3.2031 1.0938v-14.648z"/>
<path d="m161.17 15.894c-1.875 0-3.3529 0.5013-4.4336 1.5039-1.0677 1.0026-1.6016 2.3828-1.6016 4.1406 0 1.7578 0.53385 3.138 1.6016 4.1406 1.0807 1.0026 2.5586 1.5039 4.4336 1.5039s3.3529-0.5013 4.4336-1.5039c1.0807-1.0156 1.6211-2.3958 1.6211-4.1406 0-1.7578-0.54036-3.138-1.6211-4.1406-1.0677-1.0026-2.5456-1.5039-4.4336-1.5039zm-3.9453-1.6797c-1.6927-0.41667-3.0143-1.2044-3.9648-2.3633-0.9375-1.1589-1.4062-2.5716-1.4062-4.2383 0-2.3307 0.82682-4.1732 2.4805-5.5273 1.6667-1.3542 3.9453-2.0312 6.8359-2.0312 2.9036 0 5.1823 0.67708 6.8359 2.0312 1.6536 1.3542 2.4805 3.1966 2.4805 5.5273 0 1.6667-0.47526 3.0794-1.4258 4.2383-0.9375 1.1589-2.2461 1.9466-3.9258 2.3633 1.901 0.44271 3.3789 1.3086 4.4336 2.5976 1.0677 1.2891 1.6016 2.8646 1.6016 4.7266 0 2.8255-0.86588 4.9935-2.5976 6.5039-1.7188 1.5104-4.1862 2.2656-7.4024 2.2656-3.2161 0-5.6901-0.75521-7.4219-2.2656-1.7188-1.5104-2.5781-3.6784-2.5781-6.5039 0-1.862 0.53386-3.4375 1.6016-4.7266 1.0677-1.2891 2.5521-2.1549 4.4531-2.5976zm-1.4453-6.2305c0 1.5104 0.46875 2.6888 1.4062 3.5352 0.95052 0.84636 2.2786 1.2695 3.9844 1.2695 1.6927 0 3.0143-0.42318 3.9648-1.2695 0.96354-0.84635 1.4453-2.0247 1.4453-3.5352 0-1.5104-0.48177-2.6888-1.4453-3.5352-0.95052-0.84635-2.2721-1.2695-3.9648-1.2695-1.7057 0-3.0338 0.42318-3.9844 1.2695-0.9375 0.84635-1.4062 2.0247-1.4062 3.5352z"/>
</g>
<g transform="translate(308 388)" fill="#fff" fill-opacity=".78431">
<polygon points="0.83618 26.453 7.2815 26.453 7.2815 4.207 0.26978 5.6133 0.26978 2.0195 7.2424 0.61328 11.188 0.61328 11.188 26.453 17.633 26.453 17.633 29.773 0.83618 29.773"/>
<path d="m37.574 14.051c1.888 0.40365 3.3594 1.2435 4.4141 2.5195 1.0677 1.276 1.6016 2.8516 1.6016 4.7266 0 2.8776-0.98958 5.1042-2.9688 6.6797s-4.7917 2.3633-8.4375 2.3633c-1.224 0-2.487-0.1237-3.7891-0.37109-1.2891-0.23437-2.6237-0.59245-4.0039-1.0742v-3.8086c1.0937 0.63802 2.2917 1.1198 3.5938 1.4453 1.3021 0.32552 2.6628 0.48828 4.082 0.48828 2.474 0 4.3555-0.48828 5.6445-1.4648 1.3021-0.97657 1.9531-2.3958 1.9531-4.2578 0-1.7187-0.60547-3.0599-1.8164-4.0234-1.1979-0.97657-2.8711-1.4648-5.0195-1.4648h-3.3984v-3.2422h3.5547c1.9401 0 3.4245-0.38412 4.4531-1.1524 1.0286-0.78125 1.543-1.901 1.543-3.3594 0-1.4974-0.53385-2.6432-1.6016-3.4375-1.0547-0.80729-2.5716-1.2109-4.5508-1.2109-1.0807 0-2.2396 0.11719-3.4766 0.35156s-2.5977 0.59896-4.082 1.0938v-3.5156c1.4974-0.41667 2.8971-0.72917 4.1992-0.9375 1.3151-0.20833 2.5521-0.3125 3.7109-0.3125 2.9948 0 5.3646 0.68359 7.1094 2.0508 1.7448 1.3542 2.6172 3.1901 2.6172 5.5078 0 1.6146-0.46224 2.9818-1.3867 4.1016-0.92448 1.1068-2.2396 1.875-3.9453 2.3047z"/>
<path d="m54.489 26.453h13.77v3.3203h-18.516v-3.3203c1.4974-1.5495 3.5352-3.6263 6.1133-6.2305 2.5911-2.6172 4.2188-4.3034 4.8828-5.0586 1.263-1.4193 2.1419-2.6172 2.6367-3.5938 0.50781-0.98958 0.76172-1.9596 0.76172-2.9102 0-1.5495-0.54687-2.8125-1.6406-3.7891-1.0807-0.97656-2.4935-1.4648-4.2383-1.4648-1.237 0-2.5456 0.21484-3.9258 0.64453-1.3672 0.42969-2.832 1.0807-4.3945 1.9531v-3.9844c1.5885-0.63802 3.0729-1.1198 4.4531-1.4453s2.6432-0.48828 3.7891-0.48828c3.0208 0 5.4297 0.75521 7.2266 2.2656 1.7969 1.5104 2.6953 3.5286 2.6953 6.0547 0 1.1979-0.22787 2.3372-0.6836 3.418-0.44271 1.0677-1.2565 2.3307-2.4414 3.7891-0.32552 0.37761-1.3607 1.4714-3.1055 3.2812-1.7448 1.7969-4.2057 4.3164-7.3828 7.5586z"/>
<polygon points="77.242 26.453 83.688 26.453 83.688 4.207 76.676 5.6133 76.676 2.0195 83.649 0.61328 87.594 0.61328 87.594 26.453 94.039 26.453 94.039 29.773 77.242 29.773"/>
<path d="m126.72 14.051c1.888 0.40365 3.3594 1.2435 4.4141 2.5195 1.0677 1.276 1.6016 2.8516 1.6016 4.7266 0 2.8776-0.98958 5.1042-2.9688 6.6797s-4.7917 2.3633-8.4375 2.3633c-1.224 0-2.487-0.1237-3.7891-0.37109-1.2891-0.23437-2.6237-0.59245-4.0039-1.0742v-3.8086c1.0938 0.63802 2.2917 1.1198 3.5938 1.4453 1.3021 0.32552 2.6628 0.48828 4.082 0.48828 2.474 0 4.3555-0.48828 5.6445-1.4648 1.3021-0.97657 1.9531-2.3958 1.9531-4.2578 0-1.7187-0.60547-3.0599-1.8164-4.0234-1.1979-0.97657-2.8711-1.4648-5.0195-1.4648h-3.3984v-3.2422h3.5547c1.9401 0 3.4245-0.38412 4.4531-1.1524 1.0286-0.78125 1.543-1.901 1.543-3.3594 0-1.4974-0.53385-2.6432-1.6016-3.4375-1.0547-0.80729-2.5716-1.2109-4.5508-1.2109-1.0807 0-2.2396 0.11719-3.4766 0.35156s-2.5977 0.59896-4.082 1.0938v-3.5156c1.4974-0.41667 2.8971-0.72917 4.1992-0.9375 1.3151-0.20833 2.5521-0.3125 3.7109-0.3125 2.9948 0 5.3646 0.68359 7.1094 2.0508 1.7448 1.3542 2.6172 3.1901 2.6172 5.5078 0 1.6146-0.46224 2.9818-1.3867 4.1016-0.92448 1.1068-2.2396 1.875-3.9453 2.3047z"/>
<path d="m151.07 4.0508-9.9609 15.566h9.9609v-15.566zm-1.0352-3.4375h4.9609v19.004h4.1602v3.2812h-4.1602v6.875h-3.9258v-6.875h-13.164v-3.8086l12.129-18.477z"/>
<path d="m165.74 0.61328h15.488v3.3203h-11.875v7.1484c0.57291-0.19531 1.1458-0.33854 1.7188-0.42969 0.57291-0.10417 1.1458-0.15625 1.7188-0.15625 3.2552 0 5.8333 0.89193 7.7344 2.6758 1.901 1.7839 2.8516 4.1992 2.8516 7.2461 0 3.138-0.97656 5.5794-2.9297 7.3242-1.9531 1.7318-4.707 2.5976-8.2617 2.5976-1.224 0-2.474-0.10417-3.75-0.3125-1.263-0.20833-2.5716-0.52083-3.9258-0.9375v-3.9648c1.1719 0.63802 2.3828 1.1133 3.6328 1.4258s2.5716 0.46875 3.9648 0.46875c2.2526 0 4.0365-0.59245 5.3516-1.7773 1.3151-1.1849 1.9726-2.793 1.9726-4.8242 0-2.0313-0.65755-3.6393-1.9726-4.8242-1.3151-1.1849-3.099-1.7773-5.3516-1.7773-1.0547 0-2.1094 0.11719-3.1641 0.35156-1.0417 0.23437-2.1094 0.59896-3.2031 1.0938v-14.648z"/>
<path d="m191.21 0.61328h15.488v3.3203h-11.875v7.1484c0.57291-0.19531 1.1458-0.33854 1.7188-0.42969 0.57291-0.10417 1.1458-0.15625 1.7188-0.15625 3.2552 0 5.8333 0.89193 7.7344 2.6758 1.901 1.7839 2.8516 4.1992 2.8516 7.2461 0 3.138-0.97656 5.5794-2.9297 7.3242-1.9531 1.7318-4.707 2.5976-8.2617 2.5976-1.224 0-2.474-0.10417-3.75-0.3125-1.263-0.20833-2.5716-0.52083-3.9258-0.9375v-3.9648c1.1719 0.63802 2.3828 1.1133 3.6328 1.4258s2.5716 0.46875 3.9648 0.46875c2.2526 0 4.0365-0.59245 5.3516-1.7773 1.3151-1.1849 1.9726-2.793 1.9726-4.8242 0-2.0313-0.65755-3.6393-1.9726-4.8242-1.3151-1.1849-3.099-1.7773-5.3516-1.7773-1.0547 0-2.1094 0.11719-3.1641 0.35156-1.0417 0.23437-2.1094 0.59896-3.2031 1.0938v-14.648z"/>
</g>
</g>
</g>
</svg>
