<?xml version="1.0" encoding="UTF-8"?>
<svg version="1.1" viewBox="0 0 750 471" xmlns="http://www.w3.org/2000/svg">
<g fill="none" fill-rule="evenodd"><g>
<path id="Shape" d="m52.877 0c-29.198 0-52.877 23.155-52.877 51.71v367.58c0 28.561 23.672 51.71 52.877 51.71h644.25c29.198 0 52.877-23.155 52.877-51.71v-166.81-200.77c0-28.561-23.672-51.71-52.877-51.71h-644.25z" fill="#4D4D4D"/>
<path id="a" d="m314.57 152.2c8.4967 0 15.623 1.7325 24.296 5.9118v22.087c-8.215-7.6336-15.341-10.828-24.765-10.828-18.523 0-33.09 14.576-33.09 33.056 0 19.488 14.117 33.196 34.009 33.196 8.9544 0 15.949-3.0291 23.847-10.54v22.098c-8.9818 4.0195-16.261 5.6066-24.765 5.6066-30.075 0-53.444-21.935-53.444-50.224 0-27.984 23.991-50.363 53.914-50.363zm-93.378 0.60862c11.102 0 21.26 3.6118 29.753 10.673l-10.335 12.861c-5.145-5.4808-10.011-7.7927-15.927-7.7927-8.5127-9e-6 -14.712 4.6063-14.712 10.667 0 5.1982 3.4805 7.9494 15.332 12.118 22.466 7.8084 29.124 14.732 29.124 30.022 0 18.632-14.399 31.601-34.923 31.601-15.029 0-25.955-5.6253-35.055-18.32l12.757-11.68c4.5492 8.3587 12.137 12.836 21.558 12.836 8.8108 0 15.334-5.7784 15.334-13.576 0-4.0418-1.9758-7.5076-5.9214-9.958-1.9865-1.1601-5.9212-2.8898-13.653-5.4814-18.55-6.3471-24.914-13.132-24.914-26.391 0-15.751 13.667-27.58 31.582-27.58zm225.69 1.678h21.575l27.004 64.645 27.351-64.645h21.411l-43.744 98.713h-10.628l-42.969-98.713zm-382.07 0.14789h28.991c32.03 0 54.359 19.786 54.359 48.19 0 14.163-6.8308 27.857-18.382 36.944-9.72 7.6708-20.795 11.111-36.129 11.111h-28.839v-96.245zm92.437 0h19.751v96.245h-19.751v-96.245zm395.9 0h56.012v16.308h-36.276v21.363h34.938v16.3h-34.938v25.98h36.276v16.295h-56.012v-96.245zm69.094 0h29.284c22.779 0 35.832 10.397 35.832 28.416 0 14.736-8.1867 24.406-23.064 27.284l31.874 40.545h-24.288l-27.336-38.664h-2.5747v38.664h-19.727v-96.245zm19.727 15.159v29.148h5.7711c12.612 0 19.296-5.2051 19.296-14.88 0-9.3664-6.6857-14.268-18.985-14.268h-6.0829zm-557.42 1.149v63.642h5.2997c12.763 0 20.823-2.324 27.028-7.6486 6.8306-5.7819 10.939-15.014 10.939-24.25 0-9.2214-4.1088-18.178-10.939-23.96-6.5235-5.6109-14.266-7.7832-27.028-7.7832h-5.2997z" fill="#fff"/>
<path d="m399.16 151.56c29.75 0 53.867 22.168 53.867 49.553v0.031212c0 27.385-24.117 49.584-53.867 49.584-29.75 0-53.867-22.199-53.867-49.584v-0.031212c0-27.385 24.117-49.553 53.867-49.553zm350.82 119.53c-25.048 17.233-212.57 140.4-537.26 199.89h484.39c29.198 0 52.877-23.155 52.877-51.71v-148.18z" fill="#F47216"/>
</g>
</g>
</svg>
