<?xml version="1.0" encoding="UTF-8"?>
<svg version="1.1" viewBox="0 0 750 471" xmlns="http://www.w3.org/2000/svg">
<defs>
<linearGradient id="c" x1=".031608%" x2="99.974%" y1="50%" y2="50%">
<stop stop-color="#007B40" offset="0"/>
<stop stop-color="#55B330" offset="1"/>
</linearGradient>
<linearGradient id="b" x1=".47169%" x2="99.986%" y1="50%" y2="50%">
<stop stop-color="#1D2970" offset="0"/>
<stop stop-color="#006DBA" offset="1"/>
</linearGradient>
<linearGradient id="a" x1=".11388%" x2="99.986%" y1="50.001%" y2="50.001%">
<stop stop-color="#6E2B2F" offset="0"/>
<stop stop-color="#E30138" offset="1"/>
</linearGradient>
</defs>
<g fill="none" fill-rule="evenodd"><g>
<rect width="750" height="471" rx="40" fill="#0E4C96"/>
<path d="m617.24 346.77c0 41.615-33.728 75.36-75.36 75.36h-409.13v-297.88c0-41.626 33.733-75.37 75.365-75.37l409.12-4.307e-4 -4.31e-4 297.89h4.31e-4z" fill="#fff"/>
<path d="m483.86 242.04c11.684 0.25349 23.437-0.51599 35.077 0.40009 11.787 2.2008 14.628 20.043 4.1563 25.888-7.1416 3.8496-15.633 1.4322-23.379 2.1137h-15.854v-28.401zm41.833-32.144c2.5967 9.1642-6.2379 17.392-15.066 16.13h-26.767c0.18488-8.6421-0.36753-18.022 0.27218-26.209 10.724 0.30172 21.549-0.61581 32.209 0.48019 4.5814 1.1497 8.4135 4.9159 9.3514 9.5986zm64.429-135.9c0.49746 17.501 0.071059 35.926 0.21318 53.783-0.034453 72.596 0.072352 145.19-0.054694 217.79-0.46848 27.207-24.582 50.844-51.6 51.387-27.046 0.11176-54.094 0.015934-81.141 0.047803v-109.75c29.47-0.15349 58.959 0.30771 88.416-0.2317 13.667-0.85882 28.633-9.8759 29.27-24.914 1.6104-15.102-12.631-25.55-26.152-27.202-5.1983-0.13514-5.044-1.5148 0-2.1167 12.892-2.7865 23.02-16.133 19.226-29.499-3.2363-14.058-18.773-19.499-31.696-19.472-26.352-0.17916-52.709-0.025409-79.063-0.076658 0.17119-20.489-0.35448-41 0.28531-61.474 2.0877-26.716 26.806-48.748 53.447-48.27 26.283-2.868e-4 52.568 5.741e-4 78.851-4.306e-4z" fill="url(#c)"/>
<path d="m159.74 125.04c0.67326-27.164 24.888-50.611 51.874-51.008 26.945-0.082571 53.891-0.011628 80.837-0.035314-0.074031 90.885 0.14823 181.78-0.11137 272.66-1.038 26.834-24.99 49.833-51.679 50.307-26.996 0.098665-53.995 0.013782-80.992 0.042205v-113.45c26.223 6.1946 53.722 8.8316 80.473 4.7214 15.992-2.5749 33.488-10.424 38.902-27.015 3.9859-14.191 1.7415-29.126 2.3338-43.691v-33.825h-46.297c-0.20814 22.371 0.42601 44.781-0.3351 67.126-1.2483 13.734-14.846 22.46-27.8 21.995-16.067 0.16873-47.899-11.64-47.899-11.64-0.080058-41.917 0.46676-94.407 0.69288-136.18z" fill="url(#b)"/>
<path d="m309.72 197.39c-2.4342 0.51724-0.49085-8.3007-1.1137-11.646 0.16594-21.15-0.34625-42.323 0.28342-63.458 2.0828-26.829 26.992-48.916 53.739-48.288h78.766c-0.073902 90.885 0.14793 181.78-0.11115 272.66-1.039 26.834-24.992 49.833-51.681 50.308-26.997 0.099699-53.997 0.014212-80.996 0.042636v-124.3c18.44 15.128 43.499 17.485 66.472 17.526 17.317-0.006029 34.534-2.6756 51.35-6.6706v-22.773c-18.953 9.4463-41.233 15.446-62.243 10.018-14.656-3.6506-25.294-17.811-25.056-32.936-1.6985-15.729 7.5241-32.335 22.982-37.011 19.191-6.0083 40.108-1.4124 58.096 6.3979 3.8542 2.0182 7.7643 4.5215 6.2218-1.9208v-17.9c-30.085-7.1574-62.101-9.792-92.329-2.0047-8.7482 2.4682-17.271 6.211-24.379 11.957z" fill="url(#a)"/>
</g>
</g>
</svg>
