<?xml version="1.0" encoding="UTF-8"?>
<svg version="1.1" viewBox="0 0 750 471" xmlns="http://www.w3.org/2000/svg">
<g fill="none" fill-rule="evenodd"><g>
<rect width="750" height="471" rx="40" fill="#000"/>
<g transform="translate(133 48)">
<path id="a" d="m146.8 373.77v-24.77c0-9.35-6-15.64-15.55-15.72-5-0.08-10.26 1.49-13.9 7-2.73-4.38-7-7-13.07-7-4.6272-0.23227-9.032 2.0006-11.58 5.87v-4.88h-8.61v39.55h8.69v-21.97c0-6.87 3.81-10.51 9.68-10.51 5.71 0 8.61 3.72 8.61 10.42v22h8.69v-21.91c0-6.87 4-10.51 9.68-10.51 5.87 0 8.69 3.72 8.69 10.42v22l8.67 0.01zm48.48-19.77v-19.77h-8.61v4.77c-2.73-3.56-6.87-5.79-12.49-5.79-11.09 0-19.77 8.69-19.77 20.77s8.69 20.77 19.77 20.77c5.63 0 9.76-2.23 12.49-5.79v4.8h8.61v-19.76zm-32 0c0-6.95 4.55-12.66 12-12.66 7.12 0 11.91 5.46 11.91 12.66s-4.8 12.66-11.91 12.66c-7.47 0-12.02-5.71-12.02-12.66h0.02zm216.12-20.81c2.9066-0.028642 5.7907 0.5115 8.49 1.59 2.5147 1.0047 4.808 2.4927 6.75 4.38 1.9131 1.8758 3.4297 4.1168 4.46 6.59 2.146 5.2976 2.146 11.222 0 16.52-1.0303 2.4732-2.5469 4.7142-4.46 6.59-1.9417 1.8877-4.235 3.3758-6.75 4.38-5.4668 2.1283-11.533 2.1283-17 0-2.5105-1.0014-4.7978-2.49-6.73-4.38-1.9015-1.8812-3.4107-4.1212-4.44-6.59-2.146-5.2976-2.146-11.222 0-16.52 1.0298-2.4686 2.5389-4.7085 4.44-6.59 1.9323-1.8898 4.2196-3.3784 6.73-4.38 2.7055-1.0811 5.5967-1.6213 8.51-1.59zm0 8.14c-1.6818-0.014559-3.35 0.30142-4.91 0.93-1.4703 0.59036-2.8042 1.4752-3.92 2.6-1.1229 1.1481-2.0067 2.5077-2.6 4-1.2657 3.3098-1.2657 6.9702 0 10.28 0.59286 1.4925 1.4767 2.8523 2.6 4 1.1158 1.1248 2.4497 2.0096 3.92 2.6 3.1595 1.2393 6.6705 1.2393 9.83 0 1.4743-0.5939 2.8142-1.4781 3.94-2.6 1.1328-1.1441 2.0238-2.5044 2.62-4 1.2657-3.3098 1.2657-6.9702 0-10.28-0.59615-1.4956-1.4872-2.8559-2.62-4-1.1258-1.1219-2.4657-2.0061-3.94-2.6-1.5624-0.63329-3.2342-0.9527-4.92-0.94v0.01zm-137.3 12.67c-0.08-12.33-7.69-20.77-18.78-20.77-11.58 0-19.69 8.44-19.69 20.77 0 12.58 8.44 20.77 20.27 20.77 6 0 11.42-1.49 16.22-5.54l-4.22-6.37c-3.2667 2.6196-7.3131 4.0763-11.5 4.14-5.54 0-10.59-2.56-11.83-9.68h29.37c0.06-1.09 0.16-2.16 0.16-3.32zm-29.45-3.47c0.91-5.71 4.38-9.6 10.51-9.6 5.54 0 9.1 3.47 10 9.6h-20.51zm65.69-6.2c-3.7572-2.1645-8.0044-3.3347-12.34-3.4-4.72 0-7.53 1.74-7.53 4.63 0 2.65 3 3.39 6.7 3.89l4.05 0.58c8.61 1.24 13.82 4.88 13.82 11.83 0 7.53-6.62 12.91-18 12.91-6.45 0-12.41-1.66-17.13-5.13l4.05-6.7c3.7978 2.8177 8.433 4.2759 13.16 4.14 5.87 0 9-1.74 9-4.8 0-2.23-2.23-3.47-6.95-4.14l-4.05-0.58c-8.85-1.24-13.65-5.21-13.65-11.67 0-7.86 6.45-12.66 16.46-12.66 6.29 0 12 1.41 16.13 4.14l-3.72 6.96zm41.35-2.23h-14.07v17.9c0 4 1.41 6.62 5.71 6.62 2.6844-0.088246 5.3026-0.85547 7.61-2.23l2.48 7.36c-3.2275 2.0116-6.9569 3.0722-10.76 3.06-10.18 0-13.73-5.46-13.73-14.65v-18h-8v-7.86h8v-12h8.69v12h14.06l0.01 7.8zm29.78-8.85c2.0865 0.010012 4.1561 0.37523 6.12 1.08l-2.65 8.11c-1.7101-0.68398-3.5383-1.0238-5.38-1-5.63 0-8.44 3.64-8.44 10.18v22.17h-8.6v-39.56h8.48v4.77c2.1497-3.6938 6.148-5.9155 10.42-5.79l0.05 0.04z" fill="#fff"/>
<rect x="176.95" y="32.39" width="130.5" height="234.51" fill="#7673C0"/>
<path d="m185.24 149.64c-0.03486-45.77 20.985-89.013 57-117.26-61.147-48.062-148.96-41.066-201.73 16.071-52.766 57.137-52.766 145.23 0 202.37s140.58 64.133 201.73 16.071c-36.012-28.245-57.032-71.483-57-117.25z" fill="#EB001B"/>
<path d="m483.5 149.64c0.001034 57.099-32.598 109.19-83.954 134.14s-112.45 18.401-157.35-16.883c35.967-28.28 56.965-71.502 56.965-117.26s-20.998-88.975-56.965-117.26c44.891-35.283 105.99-41.839 157.34-16.885 51.355 24.954 83.956 77.038 83.959 134.14z" fill="#00A1DF"/>
</g>
</g>
</g>
</svg>
