<?xml version="1.0" encoding="UTF-8"?>
<svg version="1.1" viewBox="0 0 750 471" xmlns="http://www.w3.org/2000/svg">
<g fill="none" fill-rule="evenodd"><g>
<rect width="750" height="471" rx="40" fill="#000"/>
<g transform="translate(133 48)">
<path id="Shape" d="m88.13 373.67v-24.85c0-9.53-5.8-15.74-15.32-15.74-5 0-10.35 1.66-14.08 7-2.9-4.56-7-7-13.25-7-4.7201-0.20399-9.2275 1.9746-12 5.8v-5h-7.87v39.76h7.87v-22.75c0-7 4.14-10.35 9.94-10.35s9.11 3.73 9.11 10.35v22.78h7.87v-22.78c0-7 4.14-10.35 9.94-10.35s9.11 3.73 9.11 10.35v22.78h8.68zm129.22-39.35h-14.5v-12h-7.85v12h-8.28v7h8.28v18.68c0 9.11 3.31 14.5 13.25 14.5 3.7658-0.078517 7.4557-1.0739 10.75-2.9l-2.49-7c-2.2343 1.3966-4.8255 2.1156-7.46 2.07-4.14 0-6.21-2.49-6.21-6.63v-19.04h14.5v-6.63l0.01-0.05zm73.72-1.24c-4.3606-0.097154-8.4512 2.1057-10.77 5.8v-5h-7.87v39.76h7.87v-22.33c0-6.63 3.31-10.77 8.7-10.77 1.8188 0.073783 3.6235 0.3522 5.38 0.83l2.49-7.46c-1.899-0.47874-3.843-0.75693-5.8-0.83zm-111.41 4.14c-4.14-2.9-9.94-4.14-16.15-4.14-9.94 0-16.15 4.56-16.15 12.43 0 6.63 4.56 10.35 13.25 11.6l4.14 0.41c4.56 0.83 7.46 2.49 7.46 4.56 0 2.9-3.31 5-9.53 5-4.7494 0.097716-9.4011-1.3557-13.25-4.14l-4.14 6.21c5.8 4.14 12.84 5 17 5 11.6 0 17.81-5.38 17.81-12.84 0-7-5-10.35-13.67-11.6l-4.14-0.41c-3.73-0.41-7-1.66-7-4.14 0-2.9 3.31-5 7.87-5 5 0 9.94 2.07 12.43 3.31l4.07-6.25zm120.11 16.57c0 12 7.87 20.71 20.71 20.71 5.8 0 9.94-1.24 14.08-4.56l-4.14-6.21c-2.9312 2.3739-6.5783 3.6882-10.35 3.73-7 0-12.43-5.38-12.43-13.25s5.36-13.21 12.43-13.21c3.7717 0.04177 7.4188 1.3561 10.35 3.73l4.14-6.21c-4.14-3.31-8.28-4.56-14.08-4.56-12.43-0.83-20.71 7.87-20.71 19.88v-0.05zm-55.5-20.71c-11.6 0-19.47 8.28-19.47 20.71s8.28 20.71 20.29 20.71c5.8428 0.12341 11.548-1.7773 16.15-5.38l-4.14-5.8c-3.3279 2.5787-7.3914 4.029-11.6 4.14-5.38 0-11.18-3.31-12-10.35h29.41v-3.31c0-12.43-7.46-20.71-18.64-20.71v-0.01zm-0.41 7.46c5.8 0 9.94 3.73 10.35 9.94h-21.53c1.24-5.8 5-9.94 11.18-9.94zm-107.27 13.25v-19.88h-7.87v5c-2.9-3.73-7-5.8-12.84-5.8-11.18 0-19.47 8.7-19.47 20.71s8.28 20.71 19.47 20.71c5.8 0 9.94-2.07 12.84-5.8v5h7.87v-19.94zm-31.89 0c0-7.46 4.56-13.25 12.43-13.25 7.46 0 12 5.8 12 13.25 0 7.87-5 13.25-12 13.25-7.87 0.41-12.43-5.8-12.43-13.25zm306.08-20.71c-4.3606-0.097154-8.4512 2.1057-10.77 5.8v-5h-7.87v39.76h7.86v-22.33c0-6.63 3.31-10.77 8.7-10.77 1.8188 0.073783 3.6235 0.3522 5.38 0.83l2.49-7.46c-1.899-0.47874-3.843-0.75693-5.8-0.83h0.01zm-30.65 20.71v-19.88h-7.87v5c-2.9-3.73-7-5.8-12.84-5.8-11.18 0-19.47 8.7-19.47 20.71s8.28 20.71 19.47 20.71c5.8 0 9.94-2.07 12.84-5.8v5h7.87v-19.94zm-31.89 0c0-7.46 4.56-13.25 12.43-13.25 7.46 0 12 5.8 12 13.25 0 7.87-5 13.25-12 13.25-7.87 0.41-12.43-5.8-12.43-13.25zm111.83 0v-35.62h-7.87v20.71c-2.9-3.73-7-5.8-12.84-5.8-11.18 0-19.47 8.7-19.47 20.71s8.28 20.71 19.47 20.71c5.8 0 9.94-2.07 12.84-5.8v5h7.87v-19.91zm-31.89 0c0-7.46 4.56-13.25 12.43-13.25 7.46 0 12 5.8 12 13.25 0 7.87-5 13.25-12 13.25-7.88 0.42-12.44-5.79-12.44-13.25h0.01z" fill="#fff"/>
<rect x="170.55" y="32.39" width="143.72" height="234.42" fill="#FF5F00"/>
<path id="a" d="m185.05 149.6c0.00997-45.687 20.91-88.862 56.74-117.21-61.128-48.061-148.93-41.075-201.69 16.048-52.759 57.123-52.759 145.2 0 202.32 52.759 57.123 140.56 64.109 201.69 16.048-35.83-28.348-56.73-71.523-56.74-117.21z" fill="#EB001B"/>
<path d="m483.26 149.6c0.04134 57.047-32.503 109.11-83.804 134.06-51.301 24.95-112.35 18.408-157.2-16.846 35.838-28.341 56.742-71.52 56.742-117.21s-20.903-88.869-56.742-117.21c44.849-35.254 105.89-41.797 157.2-16.846 51.301 24.95 83.846 77.01 83.804 134.06z" fill="#F79E1B"/>
</g>
</g>
</g>
</svg>
