<?xml version="1.0" encoding="UTF-8"?>
<svg version="1.1" viewBox="0 0 750 471" xmlns="http://www.w3.org/2000/svg">
<g fill="none" fill-rule="evenodd"><g>
<rect width="750" height="471" rx="40" fill="#fff"/>
<path id="Shape" d="m201.81 55h142.39c19.869 0 32.287 16.406 27.63 36.47l-66.333 287.48c-4.6568 20.064-24.629 36.47-44.498 36.47h-142.39c-19.869 0-32.287-16.406-27.63-36.47l66.333-287.48c4.6568-20.168 24.526-36.47 44.395-36.47h0.10348z" fill="#D10429"/>
<path id="Shape" d="m331.75 55h163.81c19.869 0 10.866 16.406 6.209 36.47l-66.333 287.48c-4.6568 20.064-3.208 36.47-23.077 36.47h-163.81c-19.972 0-32.287-16.406-27.527-36.47l66.333-287.48c4.6568-20.168 24.526-36.47 44.498-36.47h-0.10348z" fill="#022E64"/>
<path id="Shape" d="m489.81 55h142.39c19.869 0 32.287 16.406 27.63 36.47l-66.333 287.48c-4.6568 20.064-24.629 36.47-44.498 36.47h-142.39c-19.972 0-32.287-16.406-27.63-36.47l66.333-287.48c4.6568-20.168 24.526-36.47 44.395-36.47h0.10348z" fill="#076F74"/>
<path id="Shape" d="m465.9 326.01h13.453l3.8289-13.062h-13.349l-3.9324 13.062zm10.762-35.948-4.6568 15.466s5.0707-2.6125 7.8648-3.4485c2.7941-0.627 6.9334-1.1495 6.9334-1.1495l3.208-10.763h-13.453l0.10348-0.1045zm6.7264-22.154-4.4498 14.839s4.9672-2.299 7.7613-3.0305 6.9334-0.94049 6.9334-0.94049l3.208-10.763h-13.349l-0.10348-0.1045zm29.7 0-17.385 57.997h4.6568l-3.6219 12.017h-4.6568l-1.1383 3.6575h-16.557l1.1383-3.6575h-33.529l3.3115-11.077h3.415l17.592-58.938 3.5184-11.913h16.868l-1.7592 5.9565s4.4498-3.2395 8.7961-4.389c4.2428-1.1495 28.665-1.5675 28.665-1.5675l-3.6219 11.808h-5.7951l0.10348 0.1045z" fill="#FEFEFE"/>
<path id="Shape" d="m520 256h18.006l0.20697 6.7925c-0.10348 1.1495 0.82787 1.672 3.001 1.672h3.6219l-3.3115 11.181h-9.7275c-8.3822 0.627-11.59-3.0305-11.383-7.106l-0.31045-12.435-0.10348-0.1045zm2.2162 53.2h-17.178l2.8975-9.9274h19.662l2.7941-9.0914h-19.351l3.3115-11.181h53.812l-3.3115 11.181h-18.11l-2.7941 9.0914h18.11l-3.001 9.9274h-19.558l-3.5184 4.18h7.9683l1.9662 12.54c0.20697 1.254 0.20697 2.09 0.6209 2.6125 0.41394 0.418 2.7941 0.627 4.1394 0.627h2.3801l-3.7254 12.226h-6.1055c-0.93135 0-2.3801-0.1045-4.3463-0.1045-1.8627-0.209-3.1045-1.254-4.3463-1.881-1.1383-0.5225-2.7941-1.881-3.208-4.2845l-1.8627-12.54-8.8996 12.331c-2.7941 3.8665-6.623 6.897-13.142 6.897h-12.418l3.3115-10.868h4.7603c1.3453 0 2.5871-0.5225 3.5184-1.045 0.93135-0.418 1.7592-0.836 2.5871-2.1945l13.039-18.496zm-187.9-27.2h45.429l-3.3115 10.972h-18.11l-2.7941 9.3004h18.627l-3.415 11.286h-18.524l-4.5533 15.152c-0.51742 1.672 4.4498 1.881 6.209 1.881l9.3135-1.254-3.7254 12.54h-20.904c-1.6557 0-2.8975-0.209-4.7603-0.627-1.7592-0.418-2.5871-1.254-3.3115-2.4035-0.72439-1.254-1.9662-2.1945-1.1383-4.9115l6.0021-20.064h-10.348l3.415-11.495h10.348l2.7941-9.3004h-10.348l3.3115-10.972-0.20697-0.1045zm31.387-19.835h18.627l-3.415 11.39h-25.457l-2.7941 2.4035c-1.2418 1.1495-1.5523 0.7315-3.1045 1.5675-1.4488 0.73149-4.4498 2.1945-8.3822 2.1945h-8.1752l3.3115-10.972h2.4836c2.0697 0 3.5184-0.209 4.2428-0.627 0.82787-0.5225 1.7592-1.672 2.6906-3.553l4.6568-8.5689h18.524l-3.208 6.27v-0.1045zm35.108 18.81s5.0707-4.7025 13.763-6.1655c1.9662-0.418 14.384-0.209 14.384-0.209l1.8627-6.27h-26.181l-3.8289 12.749v-0.1045zm24.629 4.807h-25.974l-1.5523 5.3295h22.559c2.6906-0.3135 3.208 0.1045 3.415-0.1045l1.6557-5.225h-0.10348zm-33.736-29.678h15.833l-2.2766 8.0464s4.9672-4.0755 8.4857-5.5385c3.5184-1.254 11.383-2.508 11.383-2.508l25.664-0.1045-8.7961 29.469c-1.4488 5.016-3.208 8.2554-4.2428 9.8229-0.93135 1.463-2.0697 2.8215-4.3463 4.0755-2.1732 1.1495-4.1394 1.881-6.0021 1.9855-1.6557 0.1045-4.3463 0.209-7.8648 0.209h-24.733l-6.9334 23.303c-0.6209 2.299-0.93135 3.4485-0.51742 4.0755 0.31045 0.5225 1.2418 1.1495 2.3801 1.1495l10.866-1.045-3.7254 12.749h-12.211c-3.9324 0-6.7264-0.1045-8.6926-0.209-1.8627-0.209-3.8289 0-5.1742-1.045-1.1383-1.045-2.8975-2.4035-2.7941-3.762 0.10348-1.254 0.6209-3.344 1.4488-6.27l22.249-74.403z" fill="#FEFEFE"/>
<path id="Shape" d="m437.84 303-1.4488 7.106c-0.6209 2.1945-1.1383 3.8665-2.7941 5.3295-1.7592 1.463-3.7254 3.0305-8.4857 3.0305l-8.7961 0.418-0.10348 7.9419c-0.10348 2.1945 0.51742 1.9855 0.82787 2.4035 0.41394 0.418 0.72439 0.5225 1.1383 0.7315l2.7941-0.209 8.3822-0.418-3.5184 11.704h-9.624c-6.7264 0-11.797-0.209-13.349-1.463-1.6557-1.045-1.8627-2.299-1.8627-4.598l0.6209-31.141h15.419l-0.20697 6.3745h3.7254c1.2418 0 2.1732-0.1045 2.6906-0.418s0.82787-0.83599 1.0348-1.5675l1.5523-5.016h12.108l-0.10348-0.209zm-219.37-156c-0.51742 2.508-10.452 48.592-10.452 48.592-2.1732 9.3004-3.7254 15.988-8.8996 20.273-3.001 2.508-6.5195 3.6575-10.555 3.6575-6.5195 0-10.245-3.2395-10.866-9.4049l-0.10348-2.09s1.9662-12.435 1.9662-12.54c0 0 10.348-42.009 12.211-47.547 0.10348-0.3135 0.10348-0.5225 0.10348-0.627-20.179 0.209-23.801 0-24.008-0.3135-0.10348 0.418-0.6209 3.0305-0.6209 3.0305l-10.555 47.338-0.93135 3.971-1.7592 13.167c0 3.8665 0.72439 7.106 2.2766 9.7184 4.8637 8.5689 18.627 9.8229 26.388 9.8229 10.038 0 19.455-2.1945 25.767-6.061 11.073-6.5835 13.97-16.929 16.454-26.02l1.2418-4.7025s10.659-43.576 12.522-49.219c0.10348-0.3135 0.10348-0.5225 0.20697-0.627-14.695 0.1045-18.938 0-20.386-0.3135v-0.1045zm59.029 86.623c-7.1404-0.1045-9.7275-0.1045-18.11 0.3135l-0.31045-0.627c0.72439-3.2395 1.5523-6.3745 2.1732-9.6139l1.0348-4.389c1.5523-6.7925 3.001-14.839 3.208-17.242 0.20697-1.463 0.6209-5.1205-3.5184-5.1205-1.7592 0-3.5184 0.83599-5.3812 1.672-1.0348 3.6575-3.001 13.898-4.0359 18.496-2.0697 9.8229-2.1732 10.972-3.1045 15.779l-0.6209 0.627c-7.3473-0.1045-9.9344-0.1045-18.42 0.3135l-0.41394-0.7315c1.4488-5.852 2.7941-11.704 4.1394-17.556 3.5184-15.779 4.4498-21.84 5.3812-29.887l0.72439-0.418c8.2787-1.1495 10.245-1.463 19.248-3.2395l0.72439 0.83599-1.3453 5.016c1.5523-0.94049 3.001-1.881 4.5533-2.6125 4.2428-2.09 8.8996-2.717 11.487-2.717 3.9324 0 8.2787 1.1495 10.038 5.7475 1.6557 4.0755 0.6209 9.0914-1.6557 19.019l-1.1383 5.016c-2.2766 11.077-2.6906 13.062-3.9324 20.586l-0.82787 0.627 0.10348 0.1045zm29.059 0.027576c-4.3463 0-7.1404-0.1045-9.831 0-2.6906 0-5.2777 0.209-9.3135 0.3135l-0.20697-0.3135-0.20697-0.418c1.1383-4.18 1.6557-5.643 2.2766-7.106 0.51742-1.463 1.0348-2.926 2.0697-7.2104 1.2418-5.5385 2.0697-9.4049 2.5871-12.853 0.6209-3.2395 0.93135-6.061 1.3453-9.3004l0.31045-0.209 0.31045-0.3135c4.3463-0.627 7.0369-1.045 9.831-1.463 2.7941-0.418 5.6916-0.94049 10.141-1.7765l0.20697 0.418 0.10348 0.418c-0.82787 3.4485-1.6557 6.897-2.4836 10.345s-1.6557 6.897-2.3801 10.345c-1.5523 7.3149-2.2766 10.032-2.5871 12.017-0.41394 1.881-0.51742 2.8215-1.1383 6.5835l-0.82787 0.627-0.20697-0.1045zm45.941-25.675c-0.31045 1.881-1.9662 8.8824-4.1394 11.808-1.5523 2.1945-3.3115 3.553-5.3812 3.553-0.6209 0-4.1394 0-4.2428-5.3295 0-2.6125 0.51742-5.3295 1.1383-8.2554 1.8627-8.4644 4.1394-15.466 9.831-15.466 4.4498 0 4.7603 5.225 2.7941 13.689zm18.731 0.83599c2.4836-11.077 0.51742-16.302-1.8627-19.437-3.7254-4.807-10.348-6.3745-17.178-6.3745-4.1394 0-13.867 0.418-21.525 7.5239-5.4846 5.1205-8.0717 12.122-9.5205 18.81-1.5523 6.7925-3.3115 19.019 7.8648 23.617 3.415 1.463 8.3822 1.881 11.59 1.881 8.1752 0 16.557-2.299 22.87-8.9869 4.8637-5.434 7.0369-13.585 7.8648-17.033h-0.10348zm174.43 26.08c-8.6926-0.1045-11.176-0.1045-19.144 0.3135l-0.51742-0.627c2.1732-8.2554 4.3463-16.615 6.3125-24.975 2.4836-10.868 3.1045-15.466 3.9324-21.84l0.6209-0.5225c8.5892-1.254 10.969-1.5675 19.972-3.2395l0.20697 0.7315c-1.6557 6.897-3.208 13.689-4.8637 20.482-3.3115 14.316-4.4498 21.631-5.6916 29.155l-0.82787 0.627v-0.1045z" fill="#FEFEFE"/>
<path id="a" d="m533.16 209.37c-0.41394 1.7765-2.0697 8.8824-4.2428 11.808-1.4488 2.09-4.9672 3.4485-6.9334 3.4485-0.6209 0-4.0359 0-4.2428-5.225 0-2.6125 0.51742-5.3295 1.1383-8.2554 1.8627-8.2554 4.1394-15.257 9.831-15.257 4.4498 0 6.416 5.1205 4.4498 13.585v-0.1045zm17.075 0.836c2.4836-11.077-7.6578-0.94049-9.2101-4.598-2.4836-5.7475-0.93136-17.242-10.866-21.109-3.8289-1.5675-12.832 0.418-20.49 7.5239-5.3812 5.016-8.0717 12.017-9.5205 18.705-1.5523 6.688-3.3115 19.019 7.7613 23.303 3.5184 1.5675 6.7264 1.9855 9.9344 1.7765 11.176-0.627 19.662-17.66 25.974-24.348 4.8637-5.3295 5.6916 1.9855 6.416-1.254zm-129.94 23.413c-7.1404-0.1045-9.624-0.1045-18.006 0.3135l-0.31045-0.627c0.72439-3.2395 1.5523-6.3745 2.2766-9.6139l0.93135-4.389c1.5523-6.7925 3.1045-14.839 3.208-17.242 0.20697-1.463 0.6209-5.1205-3.415-5.1205-1.7592 0-3.6219 0.83599-5.3812 1.672-0.93135 3.6575-3.001 13.898-4.0359 18.496-1.9662 9.8229-2.1732 10.972-3.1045 15.779l-0.6209 0.627c-7.3473-0.1045-9.9344-0.1045-18.42 0.3135l-0.41394-0.7315c1.4488-5.852 2.7941-11.704 4.1394-17.556 3.5184-15.779 4.3463-21.84 5.3812-29.887l0.6209-0.418c8.2787-1.1495 10.348-1.463 19.248-3.2395l0.72439 0.83599-1.2418 5.016c1.4488-0.94049 3.001-1.881 4.4498-2.6125 4.2428-2.09 8.8996-2.717 11.487-2.717 3.9324 0 8.1752 1.1495 10.038 5.7475 1.6557 4.0755 0.51742 9.0914-1.7592 19.019l-1.1383 5.016c-2.3801 11.077-2.6906 13.062-3.9324 20.586l-0.82787 0.627 0.10348 0.1045zm62.001-86.518-6.0021 0.1045c-15.523 0.209-21.732 0.1045-24.215-0.209-0.20697 1.1495-0.6209 3.135-0.6209 3.135s-5.5881 25.916-5.5881 26.02c0 0-13.246 55.176-13.867 57.788 13.556-0.209 19.041-0.209 21.421 0.1045 0.51742-2.6125 3.6219-17.974 3.7254-17.974 0 0 2.6906-11.286 2.7941-11.704 0 0 0.82787-1.1495 1.6557-1.672h1.2418c11.694 0 24.836 0 35.184-7.6284 7.0369-5.225 11.797-13.062 13.97-22.467 0.51742-2.299 0.93135-5.016 0.93135-7.8374 0-3.6575-0.72439-7.2104-2.7941-10.032-5.2777-7.4194-15.73-7.5239-27.837-7.6284zm7.7613 27.065c-1.2418 5.7475-4.9672 10.659-9.7275 12.958-3.9324 1.9855-8.6926 2.1945-13.66 2.1945h-3.208l0.20697-1.254s5.8986-25.916 5.8986-25.811l0.20697-1.3585 0.10348-1.045 2.3801 0.209s12.211 1.045 12.418 1.045c4.7603 1.881 6.8299 6.688 5.3812 13.062zm127.21 8.6662-0.72439-0.83599c-8.7961 1.7765-10.452 2.09-18.524 3.2395l-0.6209 0.627c0 0.1045-0.10348 0.209-0.10348 0.418v-0.1045c-6.0021 14.107-5.8986 11.077-10.762 22.154 0-0.5225 0-0.83599-0.10348-1.3585l-1.2418-24.035-0.72439-0.83599c-9.3135 1.7765-9.5205 2.09-18.006 3.2395l-0.6209 0.627c-0.10348 0.3135-0.10348 0.627-0.10348 0.94049l0.10348 0.1045c1.0348 5.5385 0.82787 4.2845 1.8627 12.958 0.51742 4.2845 1.1383 8.5689 1.6557 12.749 0.82787 7.106 1.3453 10.554 2.3801 21.318-5.7951 9.6139-7.1404 13.271-12.729 21.736l0.31045 0.83599c8.3822-0.3135 10.245-0.3135 16.454-0.3135l1.3453-1.5675c4.6568-10.136 40.255-71.791 40.255-71.791l-0.10348-0.1045zm-302.72 6.9224c4.7603-3.344 5.3812-7.9419 1.3453-10.345-4.0359-2.4035-11.176-1.672-15.937 1.672-4.7603 3.2395-5.2777 7.8374-1.2418 10.345 3.9324 2.299 11.073 1.672 15.833-1.672z" fill="#FEFEFE"/>
<path d="m575.73 256.1-6.9334 12.017c-2.1732 4.0755-6.3125 7.2104-12.729 7.2104l-11.073-0.209 3.208-10.868h2.1732c1.1383 0 1.9662-0.1045 2.5871-0.418 0.6209-0.209 0.93135-0.627 1.4488-1.254l4.1394-6.5835h17.282l-0.10348 0.1045z" fill="#FEFEFE"/>
</g>
</g>
</svg>
